<?xml version="1.0" encoding="UTF-8"?>
<svg version="1.1" viewBox="0 0 1600 915" width="1280" height="1280" xmlns="http://www.w3.org/2000/svg">
<path transform="translate(0)" d="m0 0h1600v915h-1600z" fill="#D3DDFC"/>
<path transform="translate(0)" d="m0 0h1600v915h-105l7-11 12-18 11-19 10-19 12-28 9-27 8-30 7-35 3-21 4-47 2-47v-36l-2-29-4-26-6-25-11-33-11-26-13-28-12-28-8-24-4-19-1-8v-24l4-25 5-21 2-14v-21l-3-19-5-17-9-19-8-12-8-10-9-10-8-7-13-10-19-11-15-7-25-8-21-4-22-2h-12l-30 3-21 5-18 6-25 10-25 7-20 3h-45l-23-3-28-6-28-8-35-12-18-7-75-30-33-11-21-6-20-4-20-2h-25l-27 2-30 5-24 6-23 8-20 9-17 9-19 12-14 10-17 13-16 13-30 23-21 14-18 10-16 7-18 6-23 5-7 1h-37l-23-4-22-6-29-10-20-7-21-7-24-6-21-3h-34l-24 4-26 8-24 10-17 9-17 12-14 12-11 13-9 14-8 16-6 18-4 20-1 11v41l4 30 6 30 3 12-1 5-7 7-9 11-9 12 1 8 8 16 7 9 11 11 15 10 3 3-5 31-2 21v32l9 6 1 86 2 51 3 35 1 12-7 18-7 27-6 33-4 33-3 33h-114z" fill="#FEFEFE"/>
<path transform="translate(608,225)" d="m0 0h20l12 4 8 6 4 5 18 3 10 4 7 5 4 7 2 7 8 7 6 7 3 6v12l-6 9-2 1-3 17-5 13-7 10-5 6-11 7-8 3-10 1-1 7 5 2 12 7 9 3 12 9 11 11v2h2v-22h11l1 5v10l7-6 5-4 3-6 5 1 8 3-2 7v5l1 1 2-5 2-1 9 4-1 5-2 4h10l2 10 5 7 2 5 6-16 3-11 10 2 2 1-1 5-6 18v7l11 6-1 9-1 3 4 1 2 4-1 7-3 3-1 8-2 2-2 6-2 2-3 7-2 1-8 24-12 25-6 18-2 1h-21l-2 3-4 1 1 4-5 3-2 4-3 5h121l4 3v23l-3 3-2 1-14 1-23 294-2 8h-247v-25l3-43 4-35 5-30 6-23 1-6-7-46-4-34-2-25v-57l3-23 4-15 4-11-4-1-7-10-3-9v-6h2l-4-18v-2l-9 2h-20l-10-3-8-7-4-10v-16l5-25-2-9-18-10-7-7-5-10-3-13v-27l3-13 8-16 8-10 8-7 14-7 7-2 25-1 12-3 7-6 4-9 3-21 2-16 4-8 6-7 10-6z" fill="#434CC1"/>
<path transform="translate(1376,197)" d="m0 0h13l9 4 5 6 3 8 11 3 5 4 3 7 1 17 4 7 5 5 1 2v9l-3 5-1 1v8l-3 8-6 5-6 1-1 8-1 3-1 42h13l29 5 9 3 11 9 10 12 9 16 8 18 7 24 4 22 1 13v14l-2 14-4 8-4 3-8 2h-23l-7-1v16l2 39-1 1-11 1-1 100-2 44-3 32-1 9 6 15 7 25 6 31 5 37 3 36v17h-280l-2-3-21-299-18-1-4-3v-24l4-3h160l2-6 5-10-10-1v-14l2-4h24l5 10 17-10 34-1h29l-1-26 6-1-5-19-16-7-16-8-14-9-12-9v-3l-18-2-21-3-12-5-7-6v-4l5 1 4 1-11-6-4-5 1-4 9 3-8-6 1-5 6 1 4 1-3-3 1-4 6 1 15 9 7 3h5l2-5-3-7v-7l5-1 6 8 9 19 6 3 2-4 12 2 36 9v-39l-3-2 4-13-16-6-40-14-3 10v3l16-5h2l2 8-18 5-5-1-4-10-6 3h-9l-41-4-5-1 1 2 1 11-3 1h-7l1 2 1 14-5 2h-3l2 8 4 24 5 9 11 14 12 15v5l4 2 6-1 19-5h8l1 5-5 4-8 3v7l5 2 24 8 2 4-2 2-10-1 11 4 2 2v4l-5 1-14-4-3-1 16 6 2 3-2 2h-9l-10-4h-1l9 5-1 3h-9l-12-5-11-8-8-8-9-7-2 4-5-2-13-9-15-15-11-15-10-18-5-11 1-9 6-15 8-14 9-11 9-10 12-11 15-11 16-9 42-6h6v-5l-8-2-8-4-7-6-9-13-6-13-9-5-4-9-2-4-9-3-6-7-2-6 1-9 7-8 5-2-3-6-1-4v-7l3-7 4-5 9-4 5-1 4-9 5-4 4-1h17l12-6z" fill="#0E6A41"/>
<path transform="translate(991,228)" d="m0 0h11l14 2 18 6 12 7 11 9 9 12 2 5v28l3 9 3 5 10 6 8 7 4 5 5 10 1 4v14l-5 12-9 12-1 6 6 8 1 3v8l-1 3 7 11 3 10-3 3 3 13 2 15v39l-1 11-3 3-6 2h-14l-15-4-6-2 2 23 2 10 12 38 60 1 4 3v23l-4 4h-16v11l-22 282-2 10h-194l-2-6-20-284v-13h-19l-4-3v-24l3-3 3-1 85-1-8-8-2-4v-8l2-3h2l-1-6 9-11 5-2h4v9l4 2 3 1 2-1h7l6 5 1 3-3 2h-3v2l4 2 4 3v11l4 3v2l10-1 4-4-9-4-2-11 2-5h2l-4-5-7-2v-2l9-3 7-1-1-4 6-4 5-3 4-8 5-3 1-6v-3l5 2 1 3 2-1 1-6h3l-1 6-1 2 5 3v2l-6 2-3 7-7 6 11 6 6 5 4 7-1 7h-5l-1 1-1 13 2 3 17 1 1-10v-22l-2-16-5-12-9-13-15-16-10-6-9 1-10 2h-17l-25 14-23 11-13 4h-13l-5-3-1-3v-18l5-31 6-23 2-7-1-4 5-13 7-10-1-5-8-16-5-16v-18l4-8 7-6 13-7 6-7 3-10-1-14-4-16 1-12 5-12 8-11 7-7 13-8 11-4z" fill="#C5204A"/>
<path transform="translate(253,210)" d="m0 0 10 5 26 4 17 5 8 5 5 6v10l7 9 2 6v9l-4 12-1 2-2 18-2 8-2 15-5 13-7 11-8 7-8 4-3 1h-12v3h7l28 11 4 4 6 16 3 16 1 11v22l-3 27-1 4 7 1 24 8 29 12 20 9-2 9-5 16-16-1-36-6-25-6-17-6-5-2-2 14-12 59-1 1-17 1-3 2v24l2 2 19 1 1 2 21 298 1 3h-188v-11l4-40 5-33 6-28 6-20 5-12-1-12-3-35-2-51-1-86-9-6v-32l3-28 4-25-14-9-10-9-8-8-7-11-5-11-1-8 10-13 12-14 13-13 11-9 13-10 21-13 25-12 12-4 23 3 4 1 1-12 2-12v-7l-1-5-1-16-8-1-7-6-2-4v-10l5-5 6-1-2-6-1-12 2-10 6-12 10-9 11-5h4l-3-6z" fill="#2C2958"/>
<path transform="translate(261,582)" d="m0 0h275l4 4v22l-5 4h-15v10l-22 282-1 9-1 2h-194l-2-3-21-298v-2h-19l-3-3v-24z" fill="#F9932F"/>
<path transform="translate(608,225)" d="m0 0h20l12 4 8 6 4 5 18 3 10 4 7 5 4 7 2 7 8 7 6 7 3 6v12l-6 9-2 1-3 17-5 13-7 10-5 6-11 7-8 3-10 1-1 7 5 2 12 7 9 3 12 9 11 11v2h2v-22h11l1 5v10l7-6 5-4 3-6 5 1 8 3-2 7v5l1 1 2-5 2-1 9 4-1 5-2 4h10l2 10 5 7 2 5 6-16 3-11 10 2 2 1-1 5-6 18v7l11 6-1 9-1 3 4 1 2 4-1 7-3 3-1 8-2 2-2 6-2 2-3 7-2 1-8 24-12 25-6 18-2 1h-21l-2 3-4 1 1 4-5 3-2 4-3 5h-25l-4-2-1-7 2-7-9-7h-20l-25-1-23-3-26-6-21-7-6-8-4-8-1-10h2l-4-18v-2l-9 2h-20l-10-3-8-7-4-10v-16l5-25-2-9-18-10-7-7-5-10-3-13v-27l3-13 8-16 8-10 8-7 14-7 7-2 25-1 12-3 7-6 4-9 3-21 2-16 4-8 6-7 10-6z" fill="#F9D46B"/>
<path transform="translate(134,587)" d="m0 0 10 4 16 6 12 3 15 2h16l20-3 24-6 9-2 1 17 3 3 19 1 1 2 21 298 1 3h-188v-11l4-40 5-33 6-28 6-20 5-12-1-12-3-35-2-51z" fill="#494C7F"/>
<path transform="translate(1376,197)" d="m0 0h13l9 4 5 6 3 8 11 3 5 4 3 7 1 17 4 7 5 5 1 2v9l-3 5-1 1v8l-3 8-6 5-6 1-1 8-1 3-1 42h13l29 5 9 3 11 9 10 12 9 16 8 18 7 24 4 22 1 13v14l-2 14-4 8-4 3-8 2h-23l-7-1v16l2 39-1 1-39 3-23 1h-27l-27-2-39-5v-14l2-4h24l5 10 17-10 34-1h29l-1-26 6-1-5-19-16-7-16-8-14-9-12-9v-3l-18-2-21-3-12-5-7-6v-4l5 1 4 1-11-6-4-5 1-4 9 3-8-6 1-5 6 1 4 1-3-3 1-4 6 1 15 9 7 3h5l2-5-3-7v-7l5-1 6 8 9 19 6 3 2-4 12 2 36 9v-39l-3-2 4-13-16-6-40-14-3 10v3l16-5h2l2 8-18 5-5-1-4-10-6 3h-9l-41-4-5-1 1 2 1 11-3 1h-7l1 2 1 14-5 2h-3l2 8 4 24 5 9 11 14 12 15v5l4 2 6-1 19-5h8l1 5-5 4-8 3v7l5 2 24 8 2 4-2 2-10-1 11 4 2 2v4l-5 1-14-4-3-1 16 6 2 3-2 2h-9l-10-4h-1l9 5-1 3h-9l-12-5-11-8-8-8-9-7-2 4-5-2-13-9-15-15-11-15-10-18-5-11 1-9 6-15 8-14 9-11 9-10 12-11 15-11 16-9 42-6h6v-5l-8-2-8-4-7-6-9-13-6-13-9-5-4-9-2-4-9-3-6-7-2-6 1-9 7-8 5-2-3-6-1-4v-7l3-7 4-5 9-4 5-1 4-9 5-4 4-1h17l12-6z" fill="#C5204A"/>
<path transform="translate(991,228)" d="m0 0h11l14 2 18 6 12 7 11 9 9 12 2 5v28l3 9 3 5 10 6 8 7 4 5 5 10 1 4v14l-5 12-9 12-1 6 6 8 1 3v8l-1 3 7 11 3 10-14 10-22 15-4-2v-2h-2l-1 7-4 10v9l-21-3-23-4-5-4-4-12-1-5 6-18-19 7-6-1-10-5-5 1-4 4 2 6 12 18-3 1-9-1-1 4 2 1-2 4 1 2-13 3-2-9-5-12-3 3-5-2-22-15-9-7 2-9 6-12 4-5-1-5-8-16-5-16v-18l4-8 7-6 13-7 6-7 3-10-1-14-4-16 1-12 5-12 8-11 7-7 13-8 11-4z" fill="#3D964F"/>
<path transform="translate(608,225)" d="m0 0h20l12 4 8 6 4 5 18 3 10 4 7 5 4 7 2 7 8 7 6 7 3 6v12l-6 9-4 1-13-9-15-7-9-3-6 1-17 13-14 8-4-1-4-5-4-2h-8l-4 4-1 7 3 7 6 5 2 1 3 17 1 21-14 9-19 6-12 6-6 10-5 15-4 21-2 25v18l1 21-9 2h-20l-10-3-8-7-4-10v-16l5-25-2-9-18-10-7-7-5-10-3-13v-27l3-13 8-16 8-10 8-7 14-7 7-2 25-1 12-3 7-6 4-9 3-21 2-16 4-8 6-7 10-6z" fill="#16142A"/>
<path transform="translate(969,431)" d="m0 0 6 1 10 5 7-1 13-5h3l-2 9-3 9 1 5 4 12 4 3 35 6 9 2-1-2v-7l6-17h2l2 3 5-2 20-14 8-5h2l3 13 2 15v39l-1 11-3 3-6 2h-14l-15-4-6-2 2 23 2 10 12 38 60 1 4 3v23l-4 4h-275l-4-3v-24l3-3 3-1 85-1-8-8-2-4v-8l2-3h2l-1-6 9-11 5-2h4v9l4 2 3 1 2-1h7l6 5 1 3-3 2h-3v2l4 2 4 3v11l4 3v2l10-1 4-4-9-4-2-11 2-5h2l-4-5-7-2v-2l9-3 7-1-1-4 6-4 5-3 4-8 5-3 1-6v-3l5 2 1 3 2-1 1-6h3l-1 6-1 2 5 3v2l-6 2-3 7-7 6 11 6 6 5 4 7-1 7h-5l-1 1-1 13 2 3 17 1 1-10v-22l-2-16-5-12-9-13-15-16-10-6-9 1-10 2h-17l-25 14-23 11-13 4h-13l-5-3-1-3v-18l5-31 6-23 3-6 7 4 19 13 8 5 2-5 2 2 6 14 1 6 11-3v-4-2l1-5 11 1-13-20-1-4z" fill="#E42552"/>
<path transform="translate(123,560)" d="m0 0h1l1 21 9 6 1 86 2 51 3 35 1 12-7 18-7 27-6 33-4 33-3 33h-19l-14-27-11-22-6-15-10-24-9-28-6-25-4-29v-25l3-21 6-21 12-25 8-12 12-16 9-11 14-17 15-20 8-13z" fill="#D3DEFC"/>
<path transform="translate(659,288)" d="m0 0 7 1 15 6 11 6 9 7v8l-4 15-6 12-9 11-11 7-8 3-10 1-1 7 5 2 12 7 9 3 12 9 11 11v2l2 1-3 9-4 5v2l4 11-1 22-3 26-6 29-4 16-8 4-4 1 2-14 5-37 1-13v-26l-3-16-5-13-11-18-9-14-3 13-3 3h-8l-9-4-6-5 7 25 3 18 1 13v13l-2 30v21l1 18-9-2-12-4-4 2-7 7-14 9-12 4h-9l-6-8-4-8-1-10h2l-4-18-2-23v-18l2-25 5-25 6-15 6-8 16-7 14-4 13-8-1-21-2-17-5-2-6-7-1-8 3-6 3-2h8l6 4 3 4 5-1 12-7z" fill="#C5204A"/>
<path transform="translate(1323,566)" d="m0 0 19 2 20 2 17 1h27l38-2h12v100l-2 44-3 32-1 9 6 15 7 25 6 31 5 37 3 36v17h-87l1-3 23-294 1-6 16-1 3-3v-22l-3-3-115-1 2-6z" fill="#494C7F"/>
<path transform="translate(991,228)" d="m0 0h11l14 2 18 6 12 7 11 9 9 12 2 5v28l3 9 3 5 10 6 8 7 4 5 5 10 1 4v14l-5 12-9 12-1 6 6 8 1 3v8l-1 2h-2l-7-8-11-9-10-6-26-7-16-2v-21l10-10 8-14 2-5 9-2 5-6 2-5v-9l-2-4-4-2h-7l-12-8-10-9-3-3-4 1-17 9-17 5-12 2h-12l1 18 4 15 7 13 9 10 5 4v22l-23 5-17 6-11 7-11 10-3-3-8-16-5-16v-18l4-8 7-6 13-7 6-7 3-10-1-14-4-16 1-12 5-12 8-11 7-7 13-8 11-4z" fill="#2C2958"/>
<path transform="translate(989,648)" d="m0 0h21l13 3 16 8 11 9 9 11 7 14 4 16v18l-4 16-8 15-9 10-9 8-15 8-17 4h-16l-14-3-12-5-11-8-7-6-9-12-7-16-2-9v-22l4-15 8-15 12-13 10-7 13-6z" fill="#C5204A"/>
<path transform="translate(390,648)" d="m0 0h19l16 4 15 8 10 9 8 9 8 16 3 11 1 7v11l-3 16-6 14-9 12-7 7-14 9-13 5-12 2h-13l-15-3-16-8-11-8-8-9-8-14-4-12-1-5v-22l4-15 8-15 12-13 14-9 13-5z" fill="#FA942F"/>
<path transform="translate(220,694)" d="m0 0 4 4 12 20 19 28 18 24-3 26-1 16v42l2 36 2 25h-109l7-25 10-35 10-42 9-40 7-23 8-33z" fill="#D3DEFD"/>
<path transform="translate(203,352)" d="m0 0 2 1 6 9 3 13v11l-3 13-8 15-7 9-24 13-23 13-5 2 5 5 16 13 20 16 2 3h5l9-7 8-1 4-1 7-7 20-8 4 1 9 9-1 7-6 17-11 12-5 6 1 6-4 2h-1v5l-4 1h-2l1 3-2 2-7 1v4l-7 2-9 9-5 1-5-5-5-6-12-9-1-6 8-9-4-6v-2l-5 2-18-6-16-8-12-7-10-8-12-12-7-11-5-11-1-8 10-13 12-14 13-13 11-9 13-10 21-13 25-12z" fill="#31357F"/>
<path transform="translate(1290,652)" d="m0 0h9l12 2 13 5 10 6 11 10 9 14 4 10 2 9v20l-4 15-6 11-8 10-8 7-10 6-13 5-13 2-15-1-14-4-11-6-11-9-8-10-6-12-4-15v-18l4-15 6-12 9-11 10-8 14-7 10-3z" fill="#0E6A41"/>
<path transform="translate(571,543)" d="m0 0 11 3 23 6 24 4 9 1 37 1 4 10 3 9v5l-117 1-2 3v23l3 2 19 1 1 3 20 285 1 12 1 3h-54v-25l3-43 4-35 5-30 6-23 1-6-7-46-4-34-2-25v-57l3-23 4-15z" fill="#2C2959"/>
<path transform="translate(254,591)" d="m0 0h2l1 17 3 3 19 1 1 2 21 298 1 3h-29l-1-2-3-37-1-22v-42l2-25 2-17-13-17-12-17-13-20-13-21-1-3 8-46 7-49v-1z" fill="#3C3F74"/>
<path transform="translate(1366,374)" d="m0 0 9 2 39 14 9 4-4 13 3 2v40l-46-11-4 1-1 2-6-2-8-15-5-10-2-2h-4v7l3 9-3 4-8-1-11-6-10-6h-4l1 4 3 4-9-3h-3l1 5 9 6-2 1-8-4h-2l1 5 9 6 11 4v1l-8-1-8-3 2 5 9 6 12 4 27 3 8 2 2 4 16 11 19 11 2 7 5 30v4l-21 4-29 5h-6v-3l-10-5-1-2 6 2 8 3h9v-3l-18-7-1-2 9 3 11 3h5l-2-5-18-6 4-1 8 2h5v-4l-24-8-5-3-1-7 9-4 4-3v-4h-8l-21 6-6-1-3-2v-5l-14-17-13-18-4-21-2-14 5-2h3l-2-16 9-2-1-12 26 2 20 2h9l6-3 5 11 8-1 13-4-1-7-18 6-2-1z" fill="#7078E5"/>
<path transform="translate(969,431)" d="m0 0 6 1 10 5 7-1 13-5h3l-2 9-3 9 1 5 4 12 4 3 35 6 9 2-1-2v-7l6-17h2l2 3 5-2 20-14 8-5h2l3 13 2 15v39l-1 11-3 3-6 2h-14l-15-4-20-8-23-11-7-3-5-3-9 1-10 2h-17l-25 14-23 11-13 4h-13l-5-3-1-3v-18l5-31 6-23 3-6 7 4 19 13 8 5 2-5 2 2 6 14 1 6 11-3v-4-2l1-5 11 1-13-20-1-4z" fill="#F2784F"/>
<path transform="translate(253,210)" d="m0 0 10 5 26 4 17 5 8 5 5 6v10l7 9 2 6v9l-4 12-1 2-2 18-3 10-8 16-3 2-4-4-4-1-16-1-10-3-7-3h-9l-5 6-7-1-7-8-2-6v-6l-5 2-8-1-7-6-2-4v-10l5-5 6-1-2-6-1-12 2-10 6-12 10-9 11-5h4l-3-6z" fill="#F2774E"/>
<path transform="translate(659,288)" d="m0 0 7 1 15 6 11 6 9 7v8l-4 15-6 12-9 11-11 7-8 3-10 1-1 7 5 2 12 7 9 3 12 9 11 11v2l2 1-3 9-4 5v2l4 11-1 22-3 26-6 29-4 16-8 4-4 1 2-14 5-37 1-13v-26l-3-16-5-13-11-18-9-14-3 13-3 3h-8l-9-4-8-6-7-20-3-31-1-9-5-2-6-7-1-8 3-6 3-2h8l6 4 3 4 5-1 12-7z" fill="#F2784E"/>
<path transform="translate(679,558)" d="m0 0 5 1 9 7-2 7v7l4 1 146 1 4 3v23l-3 3-2 1-15 1-259-1-4-3v-23l3-4h117l-5-17-1-6z" fill="#6F77E4"/>
<path transform="translate(1316,358)" d="m0 0h3v10l39 2 50 3 9 1v17l-6-1-42-15-3-1-3 10v3l16-5h2l2 8-18 5-5-1-4-10-6 3h-9l-41-4-5-1 1 2 1 11-3 1h-7l1 2 1 14-5 2h-3l2 8 4 24 5 9 11 14 12 15v5l4 2 6-1 19-5h8l1 5-5 4-8 3v7l5 2 24 8 2 4-2 2-10-1 11 4 2 2v4l-5 1-14-4-3-1 16 6 2 3-2 2h-9l-10-4h-1l9 5-1 3h-9l-12-5-11-8-8-8-9-7-2 4-5-2-13-9-15-15-11-15-10-18-5-11 1-9 6-15 8-14 9-11 9-10 12-11 15-11z" fill="#C6204A"/>
<path transform="translate(1156,582)" d="m0 0h275l4 4v22l-4 4h-275l-4-3v-24z" fill="#3D954E"/>
<path transform="translate(261,582)" d="m0 0h275l4 4v22l-5 4h-275l-3-3v-24z" fill="#F9D46B"/>
<path transform="translate(1376,197)" d="m0 0h13l9 4 5 6 3 8 11 3 5 4 3 7 1 17 4 7 5 5 1 2v9l-3 5-3 2-5-4h-7l-6 4-4 1-12-4-7-8-7-3-9 2-7-1h-8l-5 5-5 6-5 2-11 1-4 3-1 11h2l2-4 3-2 7 1v4h-7l-4 4-1-1 1 8 1 5-5-1-6-4-5-12-9-3-6-7-2-6 1-9 7-8 5-2-3-6-1-4v-7l3-7 4-5 9-4 5-1 4-9 5-4 4-1h17l12-6z" fill="#17142B"/>
<path transform="translate(1381,261)" d="m0 0 6 2 5 5 6 5 10 3 4-1 6-4h7l6 5 1 7-3 8-6 5-6 1-1 8-2 6-1 39-8 4-9 3-6 1h-10l-8-3-4-4v-6l-8-2-8-4-7-6-9-13-6-14-2-9v-5l3 1 3-4h7v-2l-7-1-5 5h-2v-11l5-4 11-1 6-3 7-9 2-1h8l7 1z" fill="#F2784F"/>
<path transform="translate(1007,486)" d="m0 0 6 1 10 7 8 8 9 11 7 11 4 10 2 16v22l-2 10h-17l-3-5 1-12 2-2 5 1v-7l-5-8-11-7-5-3 5-4 3-3 3-7 1-1h5l-6-6 3-7h-3v6l-3 1-4-4-2-1 1 7-8 8-2 5-3 3-8 4 1 5-11 2-6 1 1 2 7 2v2l3 1v2h-2l-1 7 1 9 10 3-5 6h-10l-5-5 1-11-4-2-4-3v-2l5-2-3-5-3-2h-7l-4 1-5-4v-9l-9 3-8 10v6l-3 3v8l4 6 7 6v1h-21l-3-10v-26l4-16 6-11 7-10 5-4 22-12 5-3h17z" fill="#FDFDFE"/>
<path transform="translate(1016,277)" d="m0 0 4 1 9 9 15 10h7l5 3 2 4v9l-4 8-6 5h-7l-3 9-7 11-9 9-1 26-9 3-16 1-11-2-2-1-1-27-10-9-7-10-5-11-3-12v-18l19-2 19-5 17-8z" fill="#F2774F"/>
<path transform="translate(653,380)" d="m0 0 4 4 10 16 8 13 5 13 3 16v26l-3 30-5 33h3v9l-11-3-31-10-2-7-1-12v-21l2-30v-13l-2-21-4-17-5-17 1-2 9 7 6 2h8l3-5z" fill="#F5A4B7"/>
<path transform="translate(1273,675)" d="m0 0h57v80h-71v-64l12-13z" fill="#3E964F"/>
<path transform="translate(742,484)" d="m0 0 11 5-1 5-8 16-3 9v18l-6 14 1 7-3 2v5l-4 1 1 4-5 3-2 4-3 5h-25l-4-2-1-7 2-7-9-7h-20l-25-1-23-3-26-6-18-6v-1l16-4 12-7 12-11 3-1 68 22 9-1 6-3 6-7 4-2h4l6-8 9-7 4-5 10-22z" fill="#F1774E"/>
<path transform="translate(651,240)" d="m0 0 19 3 10 4 7 5 4 7 2 7 8 7 6 7 3 6v12l-6 9-4 1-13-9-15-7-9-3-6 1-17 13-14 8-4-1-4-5-4-2h-8l-4 2-5-15v-12l3-10 6-9 9-9 16-8 4-1z" fill="#211D41"/>
<path transform="translate(615,365)" d="m0 0 2 2 9 25 6 21 3 18 1 13v13l-2 30v21l1 18-9-2-12-4-4 2-7 7-14 9-12 4h-9l-6-8-4-8-1-10 3-1 14-1 25-6 9-3-3-53v-24l3-22v-10l-3-9-6-4-6-2-9-1 1-2 17-5z" fill="#E52552"/>
<path transform="translate(1425,500)" d="m0 0 31 9 10 2 3 51v5l-1 1-39 3-23 1h-27l-27-2-39-5v-14l2-4h24l5 10 17-10 34-1h29l-1-26 6-1-4-15z" fill="#E42552"/>
<path transform="translate(311,378)" d="m0 0h2l6 16 3 16 1 11v22l-3 27-1 4 7 1 24 8 29 12 20 9-2 9-5 16-16-1-36-6-25-6-17-6-5-2 5-30 8-49 4-33z" fill="#313580"/>
<path transform="translate(1413,311)" d="m0 0h1v39h13l29 5 4 1-2 6-4 13-2 12-1 15v16l2 28 1 12-30-8-2-1-1-40-3-2 4-13-6-2 1-18-26-1-66-4-6-1-1-11 8-2 36-5h6l6 5 6 2h10l12-3 10-4z" fill="#E42552"/>
<path transform="translate(253,210)" d="m0 0 10 5 26 4 17 5 8 5 5 6v10l7 9 2 6v9l-4 12-3 3-3-17-3-5-4-1-6 4h-7l-14-5-13-5h-11l-5 3-8 9-11 17-2-1v-2l-5-2-4-2-2-6-1-12 2-10 6-12 10-9 11-5h4l-3-6z" fill="#191C4A"/>
<path transform="translate(909,435)" d="m0 0 7 4 19 13 8 5 2-5 2 2 6 14 1 6 13-3 11 3v1h-7l-5-1 1 4 8 2v1h-8l1 3 7 4v2l-25 14-23 11-13 4h-13l-5-3-1-3v-18l5-31 6-23z" fill="#DE623C"/>
<path transform="translate(240,464)" d="m0 0 4 1 9 9-1 7-6 17-11 12-5 6 1 6-4 2h-1v5l-4 1h-2l1 3-2 2-7 1v4l-7 2-9 9-5 1-5-5-5-6-12-9-1-6 8-9-5-9 7-8 7-10 8-3 8-6 8-1 4-1 7-7z" fill="#F27952"/>
<path transform="translate(571,543)" d="m0 0 11 3 23 6 24 4 9 1 37 1 4 10 3 9v5l-117 1-2 3-1 21h-1l-1-6v-10l3-23 4-15z" fill="#2D2B5B"/>
<path transform="translate(1366,374)" d="m0 0 9 2 39 14 9 4-4 13 3 2v40l-25-6-2-1-6-35-1-10-72 12h-6l4-2 12-4 11-8v-4l-2 1-30 3h-8l-1-1-1-12 26 2 20 2h9l6-3 5 11 8-1 13-4-1-7-18 6-2-1z" fill="#FDFDFE"/>
<path transform="translate(441,511)" d="m0 0h26l6 12-1 5-13 15-8 5-4 1-2-3h-6l-4 2h-6l-3 2-6 1-4 4-7 3-1 6 3 3-18 8h-5l-3-4-6-15-5-8v-5l19-10h2l1-4v3l23-11h2l1 8 2 2 5-1 2-4v-10z" fill="#FEFEFE"/>
<path transform="translate(682,679)" d="m0 0h46v38l-5 8-6 5-5 2h-3v27l7 2 4 4v3h-30l2-5 8-4 1-27-6-1-8-6-4-6-1-3z" fill="#7078E5"/>
<path transform="translate(652,372)" d="m0 0 5 2 12 7 9 3 12 9 11 11v2l2 1-3 9-4 5v2l4 11-1 22-3 26-6 29-4 16-8 4-4 1 2-14 5-37 1-13v-26l-3-16-5-13-11-18-9-14v-2h-2z" fill="#E52751"/>
<path transform="translate(233,302)" d="m0 0h3l3 12 6 7 7 1 5-6h9l12 5 5 1 16 1 7 3 2 2 6-10 3-7h1v9l-5 15-6 10-7 8-9 5-5 2h-15l-15-5-11-8-7-9-4-9-2-9v-17z" fill="#1A1D4A"/>
<path transform="translate(1053,382)" d="m0 0 10 2 14 9 12 11 8 11 5 10 1 5-14 10-22 15-4-2-5-19-6-13-1-5v-22z" fill="#0E6A41"/>
<path transform="translate(1400,805)" d="m0 0 2 4 12 47 14 47 3 9v3h-41l1-3 8-102z" fill="#D3DEFD"/>
<path transform="translate(948,385)" d="m0 0 4 1 3 14v20l-7 20-2 12-3 5-5-2-22-15-9-7 2-9 6-12 8-10 10-9 12-7z" fill="#0E6A41"/>
<path transform="translate(1346,411)" d="m0 0 5 1 6 9 8 17 5 3-3 13-1 10-18-2-21-3-12-5-7-6v-4l5 1 4 1-11-6-4-5 1-4 9 3-8-6 1-5 6 1 4 1-3-3 1-4 6 1 15 9 7 3h5l2-5-3-7v-7z" fill="#F07350"/>
<path transform="translate(1344,485)" d="m0 0h8l1 5-5 4-8 3v7l5 2 24 8 2 4-2 2-10-1 11 4 2 2v4l-5 1-14-4-3-1 16 6 2 3-2 2h-9l-10-4h-1l9 5-1 3h-9l-12-5-11-8-8-8-10-8 6-16 3-6 6 2 6-1z" fill="#F1734F"/>
<path transform="translate(695,648)" d="m0 0h21l15 4 15 8 12 11 8 11 6 13 3 12v22l-4 15-7 13-9 11-11 9-14 7-10 3-7 1h-16l-14-3-16-8-8-6-10-10-8-14-4-10-2-10v-18l4-16 7-14 9-11 11-9 16-8zm5 4-15 3-10 4-13 9-8 8-7 11-5 12-2 8v22l4 14 6 11 8 10 8 7 14 8 15 4h20l12-3 16-8 12-11 8-11 6-15 2-12v-11l-3-14-5-12-7-10-11-11-14-8-14-4-7-1z" fill="#7078E5"/>
<path transform="translate(989,648)" d="m0 0h21l13 3 16 8 11 9 9 11 7 14 4 16v18l-4 16-8 15-9 10-9 8-15 8-17 4h-16l-14-3-12-5-11-8-7-6-9-12-7-16-2-9v-22l4-15 8-15 12-13 10-7 13-6zm6 4-12 2-13 5-11 7-12 12-8 14-4 13-1 8v10l3 15 5 12 8 11 8 8 11 7 12 5 8 2h21l15-4 11-6 10-8 7-8 8-14 4-14v-22l-4-14-7-13-11-12-11-8-15-6-13-2z" fill="#E52552"/>
<path transform="translate(1029,511)" d="m0 0h3l-1 6-1 2 5 3v2l-6 2-3 7-7 6 11 6 6 5 4 7-1 7h-5l-1 1-1 12-5 3-5 1-2-1v2h-21l2-4 1-1-9-4-2-11 2-5h2l-4-5-7-2v-2l9-3 7-1-1-4 6-4 5-3 4-8 5-3 1-6v-3l5 2 1 3 2-1z" fill="#F99433"/>
<path transform="translate(1286,648)" d="m0 0h17l17 4 15 8 12 11 7 9 7 14 3 11 1 8v10l-3 16-5 12-8 12-10 10-11 7-12 5-13 3h-17l-16-4-14-7-10-8-9-10-8-15-4-14v-24l4-14 6-12 8-10 10-9 14-8 13-4zm4 4-12 2-13 5-11 7-9 8-7 10-5 10-4 15v18l4 15 6 12 9 11 10 8 14 7 11 3 15 1 16-3 12-5 9-6 10-9 9-14 4-10 2-9v-20l-4-15-6-11-8-10-9-8-16-8-10-3-8-1z" fill="#3E964F"/>
<path transform="translate(390,648)" d="m0 0h19l16 4 15 8 10 9 8 9 8 16 3 11 1 7v11l-3 16-6 14-9 12-7 7-14 9-13 5-12 2h-13l-15-3-16-8-11-8-8-9-8-14-4-12-1-5v-22l4-15 8-15 12-13 14-9 13-5zm3 4-14 3-16 8-9 7-8 9-7 12-4 12-1 6v18l4 15 7 13 9 10 9 8 14 7 11 3h23l14-4 11-6 10-8 7-8 8-14 4-14v-22l-4-14-7-13-11-12-11-8-12-5-14-3z" fill="#FAD56C"/>
<path transform="translate(1404,491)" d="m0 0 6 2 15 7 4 16v3l-6 1 1 8v18l-63 2-17 10-3-4-2-7h-21v-1l89-15h3l-6-34z" fill="#FCFAFC"/>
<path transform="translate(1175,65)" d="m0 0h12l9 4 7 8 2 5v12l-4 8-8 7-6 2h-12l-9-5-6-8-2-7 1-10 4-8 6-5z" fill="#D3DEFD"/>
<path transform="translate(240,464)" d="m0 0 4 1 9 9-1 7-6 17-11 12-5 6-5-1-11-6-10-9-2-4 1-5 8-10 9-9z" fill="#FDFDFE"/>
<path transform="translate(955,538)" d="m0 0h4v9l4 2 3 1 2-1h7l6 5 1 3-3 2h-3v2l4 2 4 3v11l4 3v2h-125v-1l85-1-8-8-2-4v-8l2-3h2l-1-6 9-11z" fill="#F79440"/>
<path transform="translate(961,681)" d="m0 0h15l12 3 9 6 5 6 2 5v12l-4 7h-2l-7-8-5-6 2 4 7 8 2 4-5 3h-11l-10-4-8-9-4-13v-12z" fill="#E42451"/>
<path transform="translate(1098,433)" d="m0 0h2l3 13 2 15v33l-1 5-2-4-4-6-5-4-8-3-13-2-7-23v-2l15-10z" fill="#DE613C"/>
<path transform="translate(1317,368)" d="m0 0 24 1 67 4 9 1v17l-6-1-42-15-3-1-3 10v3l16-5h2l2 8-18 5-5-1-4-10-6 3h-9l-25-3z" fill="#3E954F"/>
<path transform="translate(730,383)" d="m0 0 5 1 8 3-2 7 1 8-8 17-7 6-5 4-1 2-6-1-13-6-5-3 2-5 3-9 1-23h11l1 5v10l7-6 5-4z" fill="#6F77E4"/>
<path transform="translate(742,484)" d="m0 0 11 5-1 5-8 16-3 9v18l-7 16-11-2-12-5-4-4 1-7 6-12 7-6 8-7 11-24z" fill="#3E964F"/>
<path transform="translate(1021,492)" d="m0 0 6 2 21 10 11 5 4 31 12 38v4h-23v-32l-2-16-5-12-9-13-15-16z" fill="#19162E"/>
<path transform="translate(523,125)" d="m0 0h7l10 5 4 5 3 8-1 9-3 6-7 6-6 2h-9l-8-4-6-8-1-4v-10l5-8 6-5z" fill="#D3DEFD"/>
<path transform="translate(613,330)" d="m0 0 2 2 7 14 7 8 10 6 12 4 1 5v10l2 1-3 14-3 3h-8l-9-4-8-6-7-20-3-31z" fill="#DE613C"/>
<path transform="translate(1295,382)" d="m0 0 26 2 20 2h9l6-3 5 11 8-1 22-6h5l5 19v3h-11l-2-8v-4l-72 12h-6l4-2 12-4 11-8v-4l-2 1-30 3h-8l-1-1z" fill="#D3DEFD"/>
<path transform="translate(380,711)" d="m0 0h36v35h-36z" fill="#FAD56C"/>
<path transform="translate(234,329)" d="m0 0 2 3 7 12 8 7 10 5 13 4v10l-5 6-6 3-5 1h-10l-9-4-8-7-3-6 5-31z" fill="#DD613C"/>
<path transform="translate(780,402)" d="m0 0 10 2 2 1-1 5-6 18v9l1 1v5h-12l-23-3-5-1-1-5v-13l7-14h10l2 10 5 7 2 5 6-16z" fill="#48A95A"/>
<path transform="translate(391,666)" d="m0 0h14l1 1 1 12 9 19v8l-1 2h-34l-1-2v-7l9-20 1-12z" fill="#FAD56C"/>
<path transform="translate(380,750)" d="m0 0h36v24l-2 2h-32l-2-2z" fill="#FAD56C"/>
<path transform="translate(983,355)" d="m0 0 12 5h15l11-5v26l-9 3-16 1-11-2-2-1z" fill="#DE613C"/>
<path transform="translate(1029,700)" d="m0 0h11l1 11-2 11-5 8-5 4-4 2h-10l-3-1 2-6 7-11-8 9-3 5-3-2-1-3v-9l3-6 9-8z" fill="#E42451"/>
<path transform="translate(969,431)" d="m0 0 6 1 10 5 7-1 13-5h3l-2 9-4 11-4-2v10l-4 4h-14l-5-5-11-17-1-4z" fill="#FBFCFE"/>
<path transform="translate(1029,511)" d="m0 0h3l-1 6-1 2 5 3v2l-6 2-3 7-7 6 11 6 6 5 4 7-1 7-9-1-14-7-13-9-4-4 1-4 9-5 2-2 3-7 5-3 1-6v-3l5 2 1 3 2-1z" fill="#F99432"/>
<path transform="translate(1412,312)" d="m0 0h1v38l-8 4-9 3-6 1h-10l-8-3-4-4v-6l16-3 9-5 10-9 8-13z" fill="#DE623C"/>
<path transform="translate(1304,511)" d="m0 0 5 3 13 12 8 6 12 6 12 2v1l-36 6-11 2h-3l-4-20-2-15 5 2z" fill="#7078E5"/>
<path transform="translate(986,728)" d="m0 0h8l6 3 4 5-12 2h10l4 1v6l-5 8-6 4-3 1h-9l-12-4-7-5 2-5 9-10 8-5z" fill="#E42451"/>
<path transform="translate(1054,124)" d="m0 0 9 1 6 4 4 8-1 9-4 6-8 4-9-1-6-4-4-7v-7l4-8 6-4z" fill="#EFF3FE"/>
<path transform="translate(835,796)" d="m0 0 8 1 8 7 2 6-1 8-4 6-8 4h-7l-7-4-4-5-1-3v-7l4-8 6-4z" fill="#EEF3FE"/>
<path transform="translate(141,288)" d="m0 0h10l6 4 4 5 1 3v7l-3 6-6 5-2 1h-10l-6-4-4-6-1-8 3-7 6-5z" fill="#EFF3FE"/>
<path transform="translate(826,322)" d="m0 0 8 1 6 4 3 4 1 3v8l-3 6-6 5-3 1h-7l-6-3-5-5-1-3v-10l4-6 5-4z" fill="#EFF3FE"/>
<path transform="translate(795,286)" d="m0 0h7l6 3 5 6 1 2v9l-3 6-5 4-5 2-8-1-6-4-4-6v-10l4-6 5-4z" fill="#EFF3FE"/>
<path transform="translate(391,402)" d="m0 0h10l6 4 4 6 1 7-3 8-6 5-3 1h-9l-6-4-4-5-1-3v-7l3-6 5-5z" fill="#EFF3FE"/>
<path transform="translate(1180,353)" d="m0 0h9l6 3 4 5 2 8-3 9-6 5-2 1h-10l-7-4-4-8v-7l3-6 6-5z" fill="#EFF3FE"/>
<path transform="translate(955,538)" d="m0 0h4v9l4 2 3 1 2-1h7l6 5 1 3-3 2h-3v2l4 2 4 3v9l-3 1-2-3-8-2-9-4-8-8v-2l-12-1-1-5 9-11z" fill="#E42C50"/>
<path transform="translate(666,558)" d="m0 0h9l4 10 3 9v4h-34l2-22z" fill="#17152C"/>
<path transform="translate(1021,492)" d="m0 0 6 2 21 10 11 5 3 24v6l-11 1-3-12-6-11-8-10-12-13z" fill="#3D954F"/>
<path transform="translate(745,394)" d="m0 0 10 4-1 5-8 18v18l-15-3-10-3-1-2 5-6 8-6 9-19 2-5z" fill="#C7224A"/>
<path transform="translate(398,507)" d="m0 0 8 2 14 2 10 4 2 2v9l-3 5-5 1-3-3v-8l-23 11h-2v-3l-4-1 3-12z" fill="#F27952"/>
<path transform="translate(790,177)" d="m0 0h2v7l5 2 17 1-1 6-5 8-6 4-10-1-4-1-1 5-4-5-6-10 2-4 8-8z" fill="#EFF3FE"/>
<path transform="translate(469,272)" d="m0 0 9 3 4 2 2-5 2 3 4 12-1 5-15 10-1-2 1-5-6-4-15-4 3-6 4-5 5-3z" fill="#EFF3FE"/>
<path transform="translate(784,129)" d="m0 0h11l8 4 3 4 1 11 6-1-3 5-8 10-6-1-14-6 2-2 4-1v-9l-4-11z" fill="#EFF3FE"/>
<path transform="translate(741,150)" d="m0 0h20l5 16v3l-7-2-8 9-4 8-4-2-5-7-1-3v-8l6-8v-3z" fill="#EFF3FE"/>
<path transform="translate(457,318)" d="m0 0 8 1 12 4-4 3h-2l2 10 4 8 1 4-5 2-10-1-6-4-3-6-1-6-6 1 6-11z" fill="#EFF3FE"/>
<path transform="translate(135,724)" d="m0 0h2l1 14v17l-5 4h-11l-2-1-1 4-4-4-5-8 2-4 8-10h2l1 5 6 2h6l1-1h-5l-3-11v-5z" fill="#E1E8FD"/>
<path transform="translate(615,365)" d="m0 0 2 2 9 25 4 14v5l-7-4-8-6-13-26 1-3z" fill="#C6204A"/>
<path transform="translate(176,517)" d="m0 0 5 5 6 7 10 7 9 4-6 7-6 5-5-1-8-10-12-9-1-6z" fill="#FCFCFE"/>
<path transform="translate(969,506)" d="m0 0h2l1 7 8 6 4 11 8 2v2l-6 4h-2l-2 4-3 3h-2l-3-10-6-2-4-10-5-2h-5l2-4 4-3h2l-4-6h4l1 2 4-2z" fill="#F7CE6A"/>
<path transform="translate(780,402)" d="m0 0 10 2 2 1-1 5-6 18v9l1 1v5h-12l-4-1v-12l4-8z" fill="#454EC2"/>
<path transform="translate(1335,391)" d="m0 0h2l1 4-4 3-26 8-19 6-2-16z" fill="#46A659"/>
<path transform="translate(1413,311)" d="m0 0h1v39h6l-2 4-6 5-8 4-14 3h-9l-10-3-8-7-2-5 1-1h6l6 5 6 2h10l12-3 10-4z" fill="#C8204A"/>
<path transform="translate(1323,566)" d="m0 0 19 2 10 1 2 6v7h-38l2-6z" fill="#2C2A59"/>
<path transform="translate(791,453)" d="m0 0 7 1 2 4-1 7-3 3-1 8-2 2-2 6-2 2-3 7-4 1-4-4v-6l2-3v-9l2-2 3-7 3-1 1-7z" fill="#F37B52"/>
<path transform="translate(439,545)" d="m0 0h6l2 2v6l-5 5h-6l-5 4-7 2-5 1-10 1-2-2 1-6 4-3 5-2 5-4h5l2-2h7z" fill="#F37A52"/>
<path transform="translate(1212,451)" d="m0 0 4 5 2 4v9l-5 6-3 3 1 3-15-1-2-4-1-6v-8l6 2 8-7z" fill="#E2E9FE"/>
<path transform="translate(1156,468)" d="m0 0 5 1 12 5-2 2h-3l1 10 4 10-1 1h-10l-6-3-3-3-1-10h-5l4-7z" fill="#E2E9FE"/>
<path transform="translate(1168,429)" d="m0 0 7 1 7 4 1-3 2 1 3 14-9 6-7 3 1-6-5-4-12-4 2-5 7-6z" fill="#E2E9FE"/>
<path transform="translate(78,713)" d="m0 0h15l4 9 2 7-6-1-5 5-5 10-4-2-4-5-2-5 1-7 5-7-2-3z" fill="#E2E9FE"/>
<path transform="translate(113,693)" d="m0 0h12l6 4 2 2v4h2v13l-5 6-15-5-2-2 5-1-1-9-4-9z" fill="#E2E9FE"/>
<path transform="translate(1295,382)" d="m0 0 26 2 29 3-5 4-7 4-1-4-2 1-30 3h-8l-1-1z" fill="#D1DCFC"/>
<path transform="translate(703,384)" d="m0 0h11l1 5-1 14-9 22-5-2-3-2 2-5 3-9z" fill="#3D944F"/>
<path transform="translate(522,135)" d="m0 0h9l5 4 1 2v9l-5 6-2 1h-7l-6-4-2-4v-7l5-6z" fill="#FEFEFE"/>
<path transform="translate(1378,536)" d="m0 0 3 1-15 8-17 10-6 3-4-9v-2h-21v-1z" fill="#E1E6FC"/>
<path transform="translate(543,96)" d="m0 0 9 1 5 5 1 7-3 6-5 3-9-1-5-6v-8l5-6z" fill="#D3DEFD"/>
<path transform="translate(773,128)" d="m0 0h6l4 4 3 10-10 7-3 2-4-1-8-13v-2l9-6z" fill="#EFF3FE"/>
<path transform="translate(500,279)" d="m0 0 7 1 8 5 2 4-1 5-6 8-5-1-12-5 3-9z" fill="#EFF3FE"/>
<path transform="translate(451,289)" d="m0 0 9 1 5 2v17l-1 1-18-1v-14z" fill="#EFF3FE"/>
<path transform="translate(754,175)" d="m0 0 9 2 8 3-1 5-4 12-2 1-10-3-5-4-1-7z" fill="#EFF3FE"/>
<path transform="translate(813,164)" d="m0 0h4l2 7v9l-4 5h-13l-2-6-2-11 5-2z" fill="#EFF3FE"/>
<path transform="translate(652,372)" d="m0 0 5 2 10 6 9 16v8l-1 6-4-2-10-16-7-11v-2h-2z" fill="#C8214A"/>
<path transform="translate(955,538)" d="m0 0h4v9l4 2 3 1 2-1h7l6 5 1 3-3 2h-3v2l4 2 1 2-8-1-8-3v-2l-4-2-6-7-2-3-7-1 3-5z" fill="#F89334"/>
<path transform="translate(1500,731)" d="m0 0h8l6 5 1 8-4 6-5 2-6-1-5-4-1-2v-7l4-6z" fill="#EFF3FE"/>
<path transform="translate(1246,313)" d="m0 0 7 1 5 6v8l-4 5-2 1h-8l-5-4-2-5 1-6 5-5z" fill="#EFF3FE"/>
<path transform="translate(1047,297)" d="m0 0 6 1 4 4 1 2v9l-4 8-6 5h-7l3-15v-13z" fill="#DD613C"/>
<path transform="translate(1029,511)" d="m0 0h3l-1 6-1 2 5 3v2l-6 2-3 7-8 6-13-2 5-4 4-8 5-3 1-6v-3l5 2 1 3 2-1z" fill="#FAD56C"/>
<path transform="translate(392,677)" d="m0 0h12l7 17h-26l5-13z" fill="#FA942F"/>
<path transform="translate(677,385)" d="m0 0 5 2 9 7 10 10v2l2 1-3 9-7 2-6-13-7-14-3-4z" fill="#C6204A"/>
<path transform="translate(945,452)" d="m0 0 2 2 6 14v7l-21 5 3-9z" fill="#D4DDFB"/>
<path transform="translate(995,555)" d="m0 0h6l5 3h5l2 3 1 6 8 4v1h-9l-15-3-6-4v-4l1-4h2z" fill="#C52249"/>
<path transform="translate(1154,442)" d="m0 0 11 3v9l-1 7-16-1-1-1 1-11 4-5z" fill="#E2E9FE"/>
<path transform="translate(1183,477)" d="m0 0 4 4 5 8-1 4-10 5-6-1-4-9 1-4z" fill="#E2E9FE"/>
<path transform="translate(1197,437)" d="m0 0 5 1 6 4 3 4-1 6-5 6-5-1-9-5-1-2z" fill="#E2E9FE"/>
<path transform="translate(102,693)" d="m0 0h8l3 4 2 5-1 4-10 7-4-2-6-9 1-4z" fill="#E2E9FE"/>
<path transform="translate(88,735)" d="m0 0 8 1 8 3-3 12-1 3-10-1-6-5 1-7z" fill="#E2E9FE"/>
<path transform="translate(1267,721)" d="m0 0h55v5h-55z" fill="#49AA5B"/>
<path transform="translate(1061,451)" d="m0 0h2l4 9 4 14v5l-11-1-4-1-1-2v-7z" fill="#D4DDFB"/>
<path transform="translate(993,545)" d="m0 0h9l11 8 12 7v1l-9-1-10-1-5-3-9-2-1-2-7-2v-2z" fill="#3E974F"/>
<path transform="translate(679,558)" d="m0 0 5 1 9 7-2 7v7l4 2h-12l-7-20v-3z" fill="#D3DEFD"/>
<path transform="translate(1355,383)" d="m0 0 2 1 3 8v4l-15 4-16 4-3-1 11-8 11-7h2v-2z" fill="#FBFCFE"/>
<path transform="translate(693,567)" d="m0 0 14 7 7 2 8 1-2 5h-25l-4-2-1-7z" fill="#38914D"/>
<path transform="translate(1366,374)" d="m0 0 9 2 22 8-1 3-9 2h-5l-1-7-18 6-2-1z" fill="#F8F9FE"/>
<path transform="translate(1007,486)" d="m0 0h3v2l3 1 7 8 6 9v5h-5l-6-5-9-13-3-6z" fill="#D4DEFD"/>
<path transform="translate(794,294)" d="m0 0h8l4 3 1 7-2 4-3 2h-7l-5-5v-6z" fill="#D3DEFD"/>
<path transform="translate(1182,360)" d="m0 0 7 1 4 4v7l-4 4-7 1-5-4-1-5 3-6z" fill="#D3DEFD"/>
<path transform="translate(393,409)" d="m0 0 7 1 4 4v7l-4 4-6 1-5-3-1-2v-8z" fill="#D3DEFD"/>
<path transform="translate(1279,744)" d="m0 0h43v5h-42z" fill="#49AA5B"/>
<path transform="translate(1280,687)" d="m0 0h42v5h-43z" fill="#49AA5B"/>
<path transform="translate(834,804)" d="m0 0h6l5 5v6l-4 5h-8l-4-4v-8z" fill="#D3DEFD"/>
<path transform="translate(518,293)" d="m0 0 5 5 3 6v2l-16 5-9 5h-2l-2-10 5 3 4-1 5-5z" fill="#EEF2FE"/>
<path transform="translate(249,456)" d="m0 0 4 2 8 8-3 5-5 4-10-10 1-4z" fill="#E22551"/>
<path transform="translate(1287,710)" d="m0 0h35v5h-35z" fill="#49AA5B"/>
<path transform="translate(1379,382)" d="m0 0h2l2 8-18 5-5-1-1-5 10-4z" fill="#464FC3"/>
<path transform="translate(475,507)" d="m0 0 4 2 4 9-1 4-9 3-6-14z" fill="#3E974F"/>
<path transform="translate(1267,699)" d="m0 0h33l-1 5h-32z" fill="#49AA5B"/>
<path transform="translate(997,488)" d="m0 0 3 4 12 24 1 7-6-5-8-15-5-14z" fill="#D3DEFD"/>
<path transform="translate(1273,675)" d="m0 0h2l2 17h-17l2-4 9-10z" fill="#48A95A"/>
<path transform="translate(648,336)" d="m0 0 4 2 5 4 5 2 12 1 1 4-1 1h-13l-12-6-3-4z" fill="#DE623C"/>
<path transform="translate(1e3 340)" d="m0 0h7l-2 5-7 4h-7l-6-4-2-4z" fill="#fff"/>
<path transform="translate(265,324)" d="m0 0 4 1 8 5 3 1h8l5-1 2 3-1 2-3 1h-13l-10-5-3-3z" fill="#DC5C3D"/>
<path transform="translate(1378,316)" d="m0 0 4 1-1 4-7 6-7 3h-11l-1-4 4-1 11-2z" fill="#DE623C"/>
<path transform="translate(995,555)" d="m0 0h6l5 3h5l2 3v5l-1 1h-6l-10-6z" fill="#E5304E"/>
<path transform="translate(1267,733)" d="m0 0h28v4l-3 1h-22l-3-1z" fill="#49AA5B"/>
<path transform="translate(968,493)" d="m0 0v3l-8 11-5 5h-4l-1-9z" fill="#D4DEFC"/>
<path transform="translate(1330,398)" d="m0 0 3 1-9 6-14 4-19 4h-5l4-2z" fill="#464FC3"/>
<path transform="translate(1027,410)" d="m0 0h11l1 1v6l-4 5-4 1-5-6-1-5z" fill="#0E6A41"/>
<path transform="translate(975,447)" d="m0 0 6 5 5 7 7-10h1v6l-4 8h-8l-5-8z" fill="#D4DFFD"/>
<path transform="translate(1297,733)" d="m0 0h25v4l-2 1h-22z" fill="#49AA5B"/>
<path transform="translate(968,549)" d="m0 0h7l6 5 1 3-3 2h-3l-1 2-6-4-4-4 1-3z" fill="#F9D46C"/>
<path transform="translate(1015,559)" d="m0 0 13 2 5 2-1 4-2 1h-11l-5-3z" fill="#DE274F"/>
<path transform="translate(1302,699)" d="m0 0h20v5h-20z" fill="#49AA5B"/>
<path transform="translate(270,275)" d="m0 0h7l5 4-1 4-4-2h-7l-3 2-4-1 1-4z" fill="#202250"/>
<path transform="translate(1267,710)" d="m0 0h18v5h-18z" fill="#49AA5B"/>
<path transform="translate(308,282)" d="m0 0 7 1 5 5v4h-4l-3-4h-9l-1-4z" fill="#202250"/>
<path transform="translate(487,326)" d="m0 0h2l-2 4-8 14-3-4-1-5z" fill="#EDF2FE"/>
<path transform="translate(1014,305)" d="m0 0 6 1 1 1v6l-2 2h-6l-2-2v-5z" fill="#17152C"/>
<path transform="translate(1423,499)" d="m0 0 2 1 4 16v3l-6 1z" fill="#D2D8F8"/>
<path transform="translate(955,538)" d="m0 0h4v9l-13-1 3-5z" fill="#F9D46C"/>
<path transform="translate(657,296)" d="m0 0 7 1 1 5h-9l-6 1-1-4 3-2z" fill="#27244A"/>
<path transform="translate(272,287)" d="m0 0h5l2 2v6l-3 2-5-1-1-1v-6z" fill="#17152C"/>
<path transform="translate(975,308)" d="m0 0h5l2 2v5l-2 2h-6l-2-3 1-5z" fill="#17152C"/>
<path transform="translate(993,318)" d="m0 0h1l1 10 7 3v2l-10-1-4-3 2-6z" fill="#DE623C"/>
<path transform="translate(969,506)" d="m0 0 2 1-3 6-5 5-8 1 5-5h2l-4-6h4l1 2 4-2z" fill="#D33D4B"/>
<path transform="translate(1037,528)" d="m0 0h5l-1 5-4 4-7 1 2-6z" fill="#3F9850"/>
<path transform="translate(676,320)" d="m0 0h2l5 9-2 4-5 2h-6l3-3 3-2z" fill="#DE623C"/>
<path transform="translate(1369,286)" d="m0 0 5 1 1 1v6l-3 2-5-1-1-6z" fill="#17152B"/>
<path transform="translate(937,525)" d="m0 0 7 3 3 4v5l-5-1-4-4z" fill="#3F9850"/>
<path transform="translate(656,306)" d="m0 0h5l2 2v5l-2 2h-5l-2-2v-5z" fill="#16142A"/>
<path transform="translate(290,298)" d="m0 0 3 4 5 11-4 4-7 1 4-4v-8z" fill="#DE623C"/>
<path transform="translate(1372,277)" d="m0 0 9 3v4l-11-1h-4v-3l2-2z" fill="#1C1A34"/>
<path transform="translate(222,284)" d="m0 0h6l4 5-1 7-2 2-4-1 2-3v-5l-5-2z" fill="#DE623C"/>
<path transform="translate(1419,277)" d="m0 0h4l-1 4-3 1v5l2 3-3 2-4-4v-6z" fill="#DE623C"/>
<path transform="translate(444,514)" d="m0 0 2 2 4 13 7 9 1 2-4-1-7-9-4-12z" fill="#E2E9FE"/>
<path transform="translate(221,477)" d="m0 0 3 1 4 8 8 6 7 3v2l-8-2-8-6-5-7z" fill="#E2E9FE"/>
<path transform="translate(1355,297)" d="m0 0 1 3-1 12 5 5-6-1-5-4 3-9z" fill="#DE623C"/>
<path transform="translate(609,308)" d="m0 0 6 1 3 4-1 7-2 2h-3l1-9-5-3z" fill="#DE623C"/>
<path transform="translate(1013,295)" d="m0 0 8 1 5 4v3l-4-1-7-2-4-1v-3z" fill="#323161"/>
<path transform="translate(307,292)" d="m0 0 5 1 1 1v5l-2 2h-5l-2-3 1-4z" fill="#16142A"/>
<path transform="translate(1029,511)" d="m0 0h3l-1 6-1 2 5 3-1 2-6-1-6-6-2-4 5 2 1 3 2-1z" fill="#CE4646"/>
<path transform="translate(974,297)" d="m0 0h5l2 3-9 3-4 3h-2l-1-3 6-5z" fill="#302E5E"/>
<path transform="translate(689,313)" d="m0 0 5 2v5l-2 2h-5l-1-1v-6z" fill="#18172F"/>
<path transform="translate(1336,293)" d="m0 0 5 1 1 1v5l-2 2-5-1-1-1v-5z" fill="#16142A"/>
<path transform="translate(690,306)" d="m0 0 6 1 3 3 1 5-4 1-4-5-3-2z" fill="#242248"/>
<path transform="translate(1334,285)" d="m0 0 7 1v4h-7l-4 4-3-3h2l2-4z" fill="#1B1A34"/>
<path transform="translate(398,535)" d="m0 0 2 4 4 11 4 4-1 3-5-5-4-8-1-8z" fill="#E2E9FE"/>
<path transform="translate(784,435)" d="m0 0 12 6-3 2h-7z" fill="#D74F41"/>
<path transform="translate(1e3 570)" d="m0 0 12 1 9 1v3l-11-1-10-3z" fill="#DE623C"/>
<path transform="translate(1330,544)" d="m0 0h8l1 3h-21v-1z" fill="#F2F5FE"/>
<path transform="translate(992,565)" d="m0 0 9 4-2 2v3l-6-1z" fill="#E16C41"/>
<path transform="translate(1011,559)" d="m0 0h4v6l4 2 9 1v1h-6l-1 2-8-4z" fill="#ED7E37"/>
<path transform="translate(982,566)" d="m0 0h2v9l-3 1-2-3 1-5z" fill="#C72549"/>
<path transform="translate(1009,578)" d="m0 0 11 2v2h-12z" fill="#F9DEE6"/>
<path transform="translate(989,533)" d="m0 0 2 1-5 4h-2l-2 4-4 2 3-6 4-4z" fill="#E54C46"/>
<path transform="translate(1e3 577)" d="m0 0 7 1-2 4h-8l2-4z" fill="#3F9353"/>
</svg>
